<svg id="Layer_1" xmlns="http://www.w3.org/2000/svg" viewBox="0 0 24 24"><style>.st0{fill:#54a8c4}</style><path class="st0" d="M6.4 280.1c-3.5 0-6.4 2.9-6.4 6.4 0 2.9.5 5.6 2.1 8.5 1.7 2.9 4.6 5.8 9.4 9 .3.2.6.2.9 0 4.9-3.2 7.7-6.1 9.4-9 1.7-2.9 2.1-5.6 2.1-8.5 0-3.5-2.9-6.4-6.4-6.4-2.4 0-4.6 1.4-5.6 3.3-1-1.9-3.1-3.3-5.5-3.3zm0 1.7c2.7 0 4.9 2.1 4.9 4.9 0 .5.3.8.8.8s.8-.3.8-.8c0-2.7 2.1-4.9 4.9-4.9s4.9 2.1 4.9 4.9c0 2.7-.3 5.2-1.8 7.7-1.5 2.4-4.1 5.2-8.5 8.2-4.4-3-7.1-5.6-8.5-8.2-1.5-2.6-1.8-5-1.8-7.7-.6-2.8 1.5-4.9 4.3-4.9z" transform="translate(0 -280.067)"/><path class="st0" d="M6.4 282.5c-2.3 0-3.9 1.8-3.9 3.9h1.7c0-1.4 1.1-2.4 2.4-2.4v-1.5h-.2z" transform="translate(0 -280.067)"/></svg>