<svg xmlns="http://www.w3.org/2000/svg" viewBox="0 0 83.3 70.8"><path fill="white" d="M82.7 33.9c.8.8.8 2.1 0 2.9L66.1 53.6c-.4.4-.9.6-1.5.6-.5 0-1.1-.2-1.5-.6-.8-.8-.8-2.1 0-2.9l13.1-13.1H43.7c-1.2 0-2.1-.9-2.1-2.1 0-1.2.9-2.1 2.1-2.1h32.5L63.1 20.2c-.8-.8-.8-2.1 0-2.9s2.1-.8 2.9 0c.1 0 16.7 16.6 16.7 16.6zM35.4 70.8C15.9 70.8 0 54.9 0 35.4S15.9 0 35.4 0c6.1 0 12.2 1.6 17.5 4.6 1 .6 1.3 1.8.8 2.8-.6 1-1.8 1.3-2.8.8-4.7-2.7-10-4.1-15.4-4.1-17.2 0-31.2 14-31.2 31.3s14 31.2 31.2 31.2c5.4 0 10.7-1.4 15.4-4.1 1-.6 2.3-.2 2.8.8.6 1 .2 2.3-.8 2.8-5.3 3.1-11.4 4.7-17.5 4.7z" fill-rule="evenodd" clip-rule="evenodd"/></svg>