<svg id="Layer_1" xmlns="http://www.w3.org/2000/svg" viewBox="0 0 83.3 70.8"><style>.st0{fill:#fff}</style><path class="st0" d="M35.5 0c6.1 0 12.1 1.6 17.3 4.5 1.3.7 1.8 2.4 1.1 3.9l-.1.2v.1c-.6.8-1.4 1.2-2.4 1.2-.5 0-1-.1-1.3-.3-4.5-2.5-9.5-3.8-14.5-3.8-16.2.1-29.4 13.3-29.4 29.6 0 16.2 13.2 29.4 29.5 29.4 5.2 0 10.2-1.3 14.5-3.9.4-.2.9-.4 1.4-.4 1 0 2.1.6 2.6 1.6.3.6.4 1.4.2 2.1-.2.7-.7 1.4-1.5 1.8-5.3 3.1-11.3 4.7-17.5 4.7C16 70.8.1 54.9.1 35.4S16 0 35.5 0"/><path class="st0" d="M63.9 16.3c.8 0 1.5.3 2.1.8.5.4 1.2 1.1 2.5 2.4l5.6 5.6 8.1 8.1c.6.6.9 1.3.9 2.2 0 .8-.3 1.5-.8 2.1L66.2 53.8c-.7.6-1.4.9-2.2.9-.9 0-1.6-.3-2.2-.8-.5-.5-.8-1.3-.8-2.1s.3-1.5.8-2.1l9.5-9.5 1.8-1.8H43.6c-1.7 0-3-1.3-3-3s1.3-3 3-3h29.5l-1.7-1.8-9.5-9.6c-.6-.6-.9-1.3-.9-2.1s.3-1.5.9-2.1c.5-.2 1.3-.5 2-.5"/></svg>