<?xml version="1.0" encoding="utf-8"?>
<!-- Generator: Adobe Illustrator 23.0.3, SVG Export Plug-In . SVG Version: 6.00 Build 0)  -->
<svg version="1.1" id="Layer_1" xmlns="http://www.w3.org/2000/svg" xmlns:xlink="http://www.w3.org/1999/xlink" x="0px" y="0px"
	 viewBox="0 0 70.8 71" style="enable-background:new 0 0 70.8 71;" xml:space="preserve">
<style type="text/css">
	.st0{fill:#FFFFFF;}
	.st1{fill-rule:evenodd;clip-rule:evenodd;fill:#FFFFFF;}
</style>
<g>
	<g>
		<path class="st0" d="M35.4,59.2c-6.9,0-12.5-5.6-12.5-12.5c0-1.1,0.9-2,2-2s2,0.9,2,2c0,4.7,3.8,8.5,8.5,8.5s8.5-3.8,8.5-8.5
			c0-1.1,0.9-2,2-2s2,0.9,2,2C47.9,53.6,42.3,59.2,35.4,59.2z"/>
	</g>
	<g>
		<g>
			<path class="st0" d="M53.6,27.8c2.8,0,5.1,2.3,5.1,5.1S56.4,38,53.6,38s-5.1-2.3-5.1-5.1S50.8,27.8,53.6,27.8"/>
		</g>
		<g>
			<path class="st0" d="M17.2,27.8c2.8,0,5.1,2.3,5.1,5.1S20,38,17.2,38s-5.1-2.3-5.1-5.1S14.4,27.8,17.2,27.8"/>
		</g>
	</g>
	<path class="st1" d="M70.8,35.4C70.8,15.9,54.9,0,35.4,0S0,15.9,0,35.4c0,0,0,0.1,0,0.1c0,0,0,0.1,0,0.1C0,55.1,15.9,71,35.4,71
		s35.4-15.9,35.4-35.4C70.8,35.6,70.8,35.5,70.8,35.4C70.8,35.5,70.8,35.4,70.8,35.4z M35.4,66.7C24,66.7,14,60.6,8.5,51.5
		c0-0.2-0.1-0.4-0.2-0.6c-2.7-4.7-4.1-10-4.1-15.4c0-17.2,13.9-31.2,31.2-31.2c11.4,0,21.4,6.1,26.9,15.2c0,0.2,0.1,0.4,0.2,0.6
		c2.7,4.7,4.1,10,4.1,15.4C66.6,52.7,52.7,66.7,35.4,66.7z"/>
</g>
</svg>
